<svg xmlns="http://www.w3.org/2000/svg" viewBox="0 0 584.656 689.14"><title>arsenal</title><g id="Layer_2" data-name="Layer 2"><path d="M-74.023,547.669" transform="translate(-57.695 -5.898)" style="fill:#9a8348"/><path d="M87.128,62.707S51.789,208.571,58.556,274.737s11.2,279.7,292.444,420.3c0,0,239.135-103.759,284.248-348.872,0,0,25.564-87.97-20.3-283.459C614.947,62.707,379.609-65.113,87.128,62.707Z" transform="translate(-57.695 -5.898)" style="fill:#9a8348"/></g><g id="Layer_3" data-name="Layer 3"><path d="M101.917,76.241s-60.9,179.7,3.759,341.353c0,0,48.8,158.647,244.323,257.895,0,0,260.94-123.308,271.466-378.2,0,0,9.774-104.511-25.564-221.053C595.9,76.241,350.789-45.564,101.917,76.241Z" transform="translate(-57.695 -5.898)" style="fill:#003876"/></g><g id="Layer_4" data-name="Layer 4"><path d="M140.667,59a742.213,742.213,0,0,0-13.185,331.063S160.489,565.088,350,675.233c0,0,168.459-95.811,212.068-259.52,0,0,31.579-58.09,22.556-193.885q-2.755-23.823-6.3-48.471C572.662,134.081,565.881,96.6,558.333,61a604.615,604.615,0,0,0-113-30.333,640.465,640.465,0,0,0-95.667-8.333c-8.939-.166-20.982-.369-37,.333A539.576,539.576,0,0,0,223,34.333,546.866,546.866,0,0,0,140.667,59Z" transform="translate(-57.695 -5.898)" style="fill:#fff"/><path d="M551.667-17.333" transform="translate(-57.695 -5.898)" style="fill:#fff"/></g><g id="Layer_5" data-name="Layer 5"><path d="M155.046,53.759s-47.5,182.8-24.939,289.564c0,0,12.221,129.368,109.965,227.865,0,0,48.928,61.248,109.928,94.03V22S243.016,18.992,155.046,53.759Z" transform="translate(-57.695 -5.898)" style="fill:#ed1c24"/></g><g id="Layer_6" data-name="Layer 6"><path d="M544,55.667A774.636,774.636,0,0,1,565.813,158.5a778.492,778.492,0,0,1,4,184.82s-12.18,129.368-109.924,227.865c0,0-48.887,61.248-109.887,94.03V22A522.514,522.514,0,0,1,544,55.667Z" transform="translate(-57.695 -5.898)" style="fill:#ce1141"/></g><g id="Layer_7" data-name="Layer 7"><g id="Layer_8" data-name="Layer 8"><path d="M288,296.5H185.533s-19.213,4-24.016,24H149.243s-9.073,14,0,26h12.808s5.6,20,21.881,23h56.037S243.7,330.5,288,296.5Z" transform="translate(-57.695 -5.898)" style="fill:#9a8348;stroke:#fff;stroke-miterlimit:10;stroke-width:5px"/><circle cx="292.87" cy="382.438" r="111.183" style="fill:#9a8348;stroke:#fff;stroke-miterlimit:10;stroke-width:5px"/><path d="M417.667,293.752s34.112,24.288,48.056,85.466L508.5,368.535s7.3.091,10.567-13.7l54.951-3.939,3.866-56.1Z" transform="translate(-57.695 -5.898)" style="fill:none;stroke:#fff;stroke-miterlimit:10;stroke-width:7px"/><path d="M626,297.75,416.667,296.5a108.945,108.945,0,0,1,21.2,18.938c19.462,22.645,24.627,47.76,26.261,60.438L509.5,364.75a19.441,19.441,0,0,0,3-2.406,20.9,20.9,0,0,0,5.567-10.094l102.063-6.678S624.239,327.5,626,297.75Z" transform="translate(-57.695 -5.898)" style="fill:#9a8348"/><path d="M256.667,455.372s-17.388-20.158-18.2-43.991c0,0-34,42.475-71.443,56.506L178.108,489.3S230.373,474.333,256.667,455.372Z" transform="translate(-57.695 -5.898)" style="fill:none;stroke:#fffefd;stroke-miterlimit:10;stroke-width:7px"/><path d="M238.668,412.25s-35.49,47.5-102.668,69c0,0,4.31,11.5,9.633,15.75,0,0,57.8-8.5,111.034-41.25C256.667,455.75,245.513,442.75,238.668,412.25Z" transform="translate(-57.695 -5.898)" style="fill:#9a8348"/><line x1="376.963" y1="378.623" x2="325.503" y2="389.992" style="fill:none;stroke:#fff;stroke-miterlimit:10;stroke-width:6px"/><path d="M428.9,426.684s8.043-15.432,5.76-39.637h0L383.2,397.936a4.574,4.574,0,0,1-.661,3.3h0L428.9,426.684" transform="translate(-57.695 -5.898)" style="fill:#ce1141"/></g></g><g id="Layer_10" data-name="Layer 10"><g id="Layer_11" data-name="Layer 11"><path d="M359.5,476.667s32.708-1.167,57.042-33.833l-44.521-26.667s-5.521,6-12.521,7.667Z" transform="translate(-57.695 -5.898)" style="fill:#ce1141;stroke:#fffdfd;stroke-miterlimit:10;stroke-width:5px"/><path d="M418.455,339.024s-17.551-27.517-58.5-31.983l-.54,52.284s7.944,1.537,12.985,6.785Z" transform="translate(-57.695 -5.898)" style="fill:none;stroke:#fffdfd;stroke-miterlimit:10;stroke-width:5px"/><path d="M428.9,425.9s15.192-28.886-1.238-66.664L381.99,384.7s2.6,7.66.547,14.641Z" transform="translate(-57.695 -5.898)" style="fill:none;stroke:#fffdfd;stroke-miterlimit:10;stroke-width:5px"/><path d="M269.39,425.9s-15.192-28.886,1.238-66.664L316.3,384.7s-2.6,7.66-.547,14.641Z" transform="translate(-57.695 -5.898)" style="fill:none;stroke:#fffdfd;stroke-miterlimit:10;stroke-width:5px"/><path d="M280.411,443.128s17.551,27.517,58.5,31.983l.54-52.284s-7.944-1.537-12.985-6.785Z" transform="translate(-57.695 -5.898)" style="fill:#ed1c24;stroke:#fffdfd;stroke-miterlimit:10;stroke-width:5px"/><path d="M338.5,306.167S306.188,307.333,281.854,340l44.323,26.667s5.323-6,12.323-7.667Z" transform="translate(-57.695 -5.898)" style="fill:none;stroke:#fffdfd;stroke-miterlimit:10;stroke-width:5px"/></g></g><g id="Layer_12" data-name="Layer 12"><g id="Layer_13" data-name="Layer 13"><path d="M198.34,121.036Q208.1,169.65,219.5,217.887H196.93c-2.4-10.847-3.564-16.271-5.838-27.118h-34.32q-6.205,13.592-12.558,27.118H131.228q23.244-48.078,44.955-96.852Zm-17.628,14.751q-9.667,22.883-19.733,45.595H189.2q-4.243-22.774-8.2-45.595Z" transform="translate(-57.695 -5.898)" style="fill:#fff;stroke:#9a8348;stroke-miterlimit:10;stroke-width:4px"/><path d="M271.163,157.69s-7.456-2.086-12.2-2.086c-7.563,0-10.386,8.94-10.386,8.94l-3.569,53.343H224.445l5.984-74.5h13.825c.94,5.007,1.415,7.51,2.377,12.517h.594s2.875-14.155,14.922-14.155c4.7,0,11.5,2.086,11.5,2.086C272.66,149.376,272.163,152.147,271.163,157.69Z" transform="translate(-57.695 -5.898)" style="fill:#fff;stroke:#9a8348;stroke-miterlimit:10;stroke-width:4px"/><path d="M273.216,200.6s6.32,9.089,16.622,9.089c7.842,0,12.38-4.9,12.149-10.281-.686-15.993-30.544-13.622-29.406-34.568.734-13.509,13.626-23.421,27.173-23.095,10.177.245,21.06,5.215,21.06,5.215-1.134,3.993-1.705,5.99-2.854,9.983,0,0-9.5-5.514-16.6-5.514-6.212,0-10.015,3.559-9.924,8.2.328,16.792,31.9,13.65,31.849,35.611-.039,15.812-15.578,24.271-29.485,24.287-9.032.011-20.8-3.312-26.648-11.175C269.589,205.252,270.8,203.7,273.216,200.6Z" transform="translate(-57.695 -5.898)" style="fill:#fff;stroke:#9a8348;stroke-miterlimit:10;stroke-width:4px"/><path d="M387.966,204.924c-5.343,9.2-16.613,14.784-27,14.6-22.051-.388-36.065-15.391-35.657-37.548.365-19.83,11.115-40.017,33.211-40.082,19.147-.056,29.376,15.939,29.718,33.675a32.868,32.868,0,0,1-.953,9.387H346.592c-.005,11.431,2.978,24.755,16.744,24.586,11.693-.143,17.618-9.835,17.618-9.835C383.749,201.795,385.152,202.838,387.966,204.924ZM346.6,175.273h22.994c-.02-1.371-.031-2.057-.051-3.428-.226-15.2-3.264-20.56-10.95-20.413C347.259,151.649,346.822,166.555,346.6,175.273Z" transform="translate(-57.695 -5.898)" style="fill:#fff;stroke:#9a8348;stroke-miterlimit:10;stroke-width:4px"/><path d="M393.385,143.386h15.737c1.1,2.444,1.657,3.666,2.769,6.109h.59s5.281-7.565,20.378-7.6c15.159-.035,23.833,10.7,24.517,25.479l3.747,50.512h-20.56L437.74,171.4c-.824-13.56-3.709-17.136-10.969-17.136a17.711,17.711,0,0,0-13.095,5.364l2.617,58.26H395.732Q394.558,180.637,393.385,143.386Z" transform="translate(-57.695 -5.898)" style="fill:#fff;stroke:#9a8348;stroke-miterlimit:10;stroke-width:4px"/><path d="M470.078,147.707s11.121-5.663,22.271-5.96c16.239-.433,29.98,8.86,31.457,26.075l4.025,33.823c.745,6.258,2.631,7.9,4.168,7.9a22.829,22.829,0,0,0,5.1-1.043c.632,3.1.948,4.649,1.582,7.748,0,0-10.269,3.277-16.769,3.277-6.036,0-9.424-2.682-11.2-9.237h-.769s-3.8,8.8-19.289,9.237c-11.863.334-24.139-7.109-25.352-19.519-1.942-19.871,24.636-25.077,39.249-26.225l-.456-4.321c-1.463-13.857-5.57-17.731-14.149-17.731-6.952,0-17.133,5.514-17.133,5.514C471.711,153.429,471.165,151.522,470.078,147.707Zm35.3,33.973c-8.953.445-20.275,4.878-19.078,15.794.882,8.036,4.8,12.069,10.181,12.069,8.456,0,10.973-8.2,10.973-8.2Z" transform="translate(-57.695 -5.898)" style="fill:#fff;stroke:#9a8348;stroke-miterlimit:10;stroke-width:4px"/><path d="M564.544,217.887H543.983q-7.129-55.578-14.259-111.155l18.9-1.192Q556.584,161.713,564.544,217.887Z" transform="translate(-57.695 -5.898)" style="fill:#fff;stroke:#9a8348;stroke-miterlimit:10;stroke-width:4px"/></g></g></svg>