<svg id="Layer_1" data-name="Layer 1" xmlns="http://www.w3.org/2000/svg" xmlns:xlink="http://www.w3.org/1999/xlink" viewBox="0 0 1891.867 1928.178"><defs><radialGradient id="radial-gradient" cx="657.987" cy="2943.927" r="76.551" gradientTransform="matrix(0.85, 0, 0, -0.632, 443.37, 3774.705)" gradientUnits="userSpaceOnUse"><stop offset="0" stop-color="#ffe500"/><stop offset="0.5" stop-color="#ffe500"/><stop offset="1" stop-color="#e15007"/></radialGradient><radialGradient id="radial-gradient-2" cx="452.497" cy="2700.752" r="80.331" gradientTransform="matrix(0.857, 0, 0, -0.77, 436.34, 3972.09)" xlink:href="#radial-gradient"/><clipPath id="clip-path" transform="translate(-54.066 -31.793)"><path d="M635.03,601.964V1361.6l363.216,233.38,363.189-233.38.54-758.472c-11.634-10.257-35.792-32.742-54.715-44.511h-619.7C671.875,569.626,640.455,596.133,635.03,601.964Z" style="fill:none"/></clipPath><linearGradient id="linear-gradient" x1="608.792" y1="3457.38" x2="608.792" y2="3096.048" gradientTransform="matrix(1, 0, 0, -1, 371.554, 4301.992)" gradientUnits="userSpaceOnUse"><stop offset="0" stop-color="#8f0904"/><stop offset="0.25" stop-color="#b40509"/><stop offset="1" stop-color="#da020e"/></linearGradient><radialGradient id="radial-gradient-3" cx="412.692" cy="4900.054" r="96.607" gradientTransform="matrix(0.815, 0, 0, -0.776, 455.355, 3920.312)" xlink:href="#radial-gradient"/><radialGradient id="radial-gradient-4" cx="1087.085" cy="2432.391" r="55.965" gradientTransform="matrix(1.088, -1.905, -1.676, -0.957, 3113.555, 4918.592)" xlink:href="#radial-gradient"/><linearGradient id="linear-gradient-2" x1="-198.146" y1="3804.393" x2="-168.298" y2="3771.584" gradientTransform="matrix(1, 0, 0, -1, 371.554, 4301.992)" xlink:href="#radial-gradient"/><linearGradient id="linear-gradient-3" x1="-24.853" y1="3083.058" x2="181.317" y2="2846.426" gradientTransform="matrix(1, 0, 0, -1, 371.554, 4301.992)" gradientUnits="userSpaceOnUse"><stop offset="0" stop-color="#740703"/><stop offset="1" stop-color="#da020e" stop-opacity="0"/></linearGradient><linearGradient id="linear-gradient-4" x1="-317.639" y1="3083.059" x2="-111.469" y2="2846.426" gradientTransform="translate(1328.912 4301.992) rotate(180)" xlink:href="#linear-gradient-3"/><linearGradient id="linear-gradient-5" x1="1440.584" y1="3466.394" x2="1329.006" y2="3571.382" xlink:href="#linear-gradient-3"/><linearGradient id="linear-gradient-6" x1="1134.608" y1="3455.193" x2="1016.468" y2="3579.866" gradientTransform="translate(1329.446 4301.992) rotate(180)" xlink:href="#linear-gradient-3"/><radialGradient id="radial-gradient-5" cx="49.586" cy="4900.054" r="96.607" gradientTransform="translate(1245.645 3920.312) rotate(180) scale(0.815 0.776)" xlink:href="#radial-gradient"/><radialGradient id="radial-gradient-6" cx="613.821" cy="4103.853" r="54.242" gradientTransform="matrix(1.096, 0, 0, -1.048, 325.638, 4382.738)" xlink:href="#radial-gradient"/><radialGradient id="radial-gradient-7" cx="1020.24" cy="2565.465" r="55.965" gradientTransform="matrix(-1.088, -1.905, 1.676, -0.957, -1412.555, 4918.592)" xlink:href="#radial-gradient"/><linearGradient id="linear-gradient-7" x1="-493.905" y1="3804.393" x2="-464.057" y2="3771.584" gradientTransform="translate(1329.446 4301.992) rotate(180)" xlink:href="#radial-gradient"/><radialGradient id="radial-gradient-8" cx="95.943" cy="2700.752" r="80.331" gradientTransform="translate(1266.41 3972.09) rotate(180) scale(0.857 0.77)" xlink:href="#radial-gradient"/><radialGradient id="radial-gradient-9" cx="-130.383" cy="3190.589" r="123.071" gradientTransform="matrix(1.041, 0, 0, -1.024, 356.899, 4338.966)" gradientUnits="userSpaceOnUse"><stop offset="0" stop-color="#da030e" stop-opacity="0"/><stop offset="0.875" stop-color="#da020e" stop-opacity="0"/><stop offset="1" stop-color="#da020e"/></radialGradient><radialGradient id="radial-gradient-10" cx="1139.768" cy="3191.098" r="123.071" gradientTransform="matrix(1.041, 0, 0, -1.024, 594.555, 4338.873)" xlink:href="#radial-gradient-9"/></defs><title>manchesterunited</title><g id="layer1"><path id="path22" d="M1094.34,1881.881c-7.693,22.62-32.2,78.091-91.533,78.091-67.482,0-90.885-73.016-92.019-76.093l-2-6.91s58.116,4.832,90.129,4.832c31.932,0,86.647-3.158,95.5-4.832l-.081,4.913Z" transform="translate(-54.066 -31.793)"/><path id="path26" d="M1271.413,1845.883l13.847,1.755c-16.52,43.162-46.185,91.533-104.327,91.533-56.712,0-84.676-32.823-96.391-54.768l-9.906-6.046s97.687-3.158,196.778-32.472" transform="translate(-54.066 -31.793)"/><path id="path30" d="M736.253,1845.883l-13.847,1.755c16.439,43.162,46.239,91.533,104.57,91.533,56.388,0,86.782-34.551,99.307-54.768l6.721-6.046s-97.525-3.158-196.751-32.472" transform="translate(-54.066 -31.793)"/><path id="path34" d="M1050.153,1886.486c-9.2,13.172-15.386,12.5-26.264,12.5-5.642,0-13.739,4.535-13.658,12.9.243,6.586,5.615,11.931,14.441,11.931,20.083,0,35.442-27.83,39.517-39.68,0,0,11.769-.485,15.2-.837,0,0-21.054,62.947-75.85,62.947-54.877,0-77.253-62.192-77.253-62.192s46.266,2.807,72.638,2.807c26.453,0,43.3-.243,51.232-.378" transform="translate(-54.066 -31.793)" style="fill:url(#radial-gradient)"/><path id="path890" d="M743.7,1858.742c35.658,9.447,61.139,17.437,121.2,24.725,0,0-1.917,6.074-14.981,5.587-4.994-.324-5.668-1.566-7.4-1.862-3.86-.7-9.448,3.212-8.881,9.717.594,4.589,4.427,10.284,17.761,10.284s28.855-10.851,36.71-21a103.516,103.516,0,0,0,16.25,2.267s-25.67,35.846-76.093,35.846c-55.362,0-75.985-49.694-84.569-65.566" transform="translate(-54.066 -31.793)" style="fill:url(#radial-gradient-2)"/><path id="path1322" d="M998.246,1563.711c191.217,0,403.057-117.365,551.788-286.556,16.2-18.3,43.323-53.068,107.918-53.068,64.7,0,150.7,58.979,140.633,166.3-7.5,78.171-119.228,254.543-310.526,363.027-191.245,108.916-367.427,132.211-489.812,132.211-122.493,0-298.514-23.295-489.866-132.211-191.271-108.484-302.968-284.856-310.418-363.027-10.068-107.324,75.958-166.3,140.525-166.3,64.756,0,91.992,34.767,108.133,53.068,148.515,169.191,360.463,286.556,551.626,286.556Z" transform="translate(-54.066 -31.793)" style="fill:#ffe500;stroke:#000;stroke-miterlimit:3.86299991607666;stroke-width:2.0979716777801514px"/><path id="path1326" d="M996.626,1589.732c-192.4,0-411.344-113.532-572.6-297.191-16.412-18.652-37.3-42.649-87.025-42.649-29.044,0-61.976,15.548-83.813,39.6-16.439,17.869-34.875,49.37-30.448,97.66,6.4,65.97,110.941,236.7,297.272,342.728,150.188,85.432,310.553,128.594,476.613,128.594,166.222,0,326.587-43.162,476.775-128.594,186.278-106.028,290.983-276.758,297.137-342.728,4.616-48.29-13.955-79.791-30.178-97.66-21.945-24.051-54.957-39.6-83.867-39.6-49.937,0-70.8,24-87.065,42.649-161.161,183.659-380.37,297.191-572.8,297.191Z" transform="translate(-54.066 -31.793)" style="fill:#da020e"/><path id="path6226" d="M1824.308,631.955l.675-44.592c13.739,10.5,39.572,10.662,54.687-5.453,6.883-7.342,10.8-18.706,10.23-30.394a56.346,56.346,0,0,0-16.492-36.575C1817.587,460.389,1768,405.917,1768,405.917c-5.129-8.1-13.146-13.955-17.788-15.953-6.829-3.266-31.123-14.36-49.64,13.766-16.709,25.481-14.225,61.409-11.013,74.527L1741.9,549.6c17.923,22.728,68.427,71.072,82.409,82.355" transform="translate(-54.066 -31.793)"/><path id="path6234" d="M705.589,169.538c65.89-22.134,126.138-40.435,207.332-47.615l12.309-6.91c-45.321-35.766-90.345-60.167-135.18-60.167-28.154,0-85.432,19.138-98.2,120.2l13.739-5.507Z" transform="translate(-54.066 -31.793)"/><path id="path6238" d="M1291.037,169.538c-65.917-22.134-126.111-40.435-207.224-47.615l-12.471-6.91c45.51-35.766,90.426-60.167,135.315-60.167,28.181,0,85.217,19.138,98.254,120.2Z" transform="translate(-54.066 -31.793)"/><path id="path6246" d="M923.8,118.576c33.147-63.73,63.46-86.782,80.412-86.782,20.946,0,45.618,33.309,65,76.417l4.076,9.771-17.033-1.323c-11.175-2.105-43-2.51-55.146-2.51-12.471,0-39.356,0-55.551,1.511L923.8,118.575Z" transform="translate(-54.066 -31.793)"/><path id="path6270" d="M662.428,1554.789l-47.993,86.755c-14.5,26.075-29.422,42.622-53.9,28.585-24.1-13.631-18.517-33.39-3.725-60.329l48.128-86.863-38.816-21.54-50.855,91.8c-27.992,50.531,7.234,81.869,34.821,97.066,29.449,16.3,72.314,28.423,100.062-21.729l51.205-92.208-38.924-21.54Zm617.165,178.736-16.169-49.775,48.155-15.548-6.667-20.7-48.209,15.629-13.712-42.541,49.289-16.168-6.64-20.487-90.237,29.341,50.153,154.183,99.469-32.256-6.559-20.569Zm103.086-199.531-54.931,31.662,81.329,141.038,54.715-31.636c56.55-32.607,61.922-82,39.652-121.63-26.8-47.022-71.045-48.1-120.766-19.435m83,42.918c20.6,36.09,16.412,62.407-15.3,80.574l-15.116,8.8-59.708-103.167,16.25-9.42c38.087-21.891,59.708-2.4,73.879,23.214M1026.264,1643l2.942,21.135,45.4-6.424,19.624,139.391,42.217-5.857-19.57-139.31,44.727-6.209-3.077-21.432L1026.264,1643Zm-38.438,1.32L945.312,1642l-8.5,161.957,42.541,2.267Zm-129.08-19.8L829.135,1735.19l-55.416-133.48-34.47-9.259-42,156.693,37.547,9.96,29.854-111.588L820.9,1782.13l33.714,9.1,41.839-156.747-37.709-9.96Z" transform="translate(-54.066 -31.793)" style="fill:#ffe500"/><path id="path7502" d="M635.03,601.964V1361.6l363.216,233.38,363.189-233.38.54-758.472c-11.634-10.257-35.792-32.742-54.715-44.511h-619.7C671.875,569.626,640.455,596.133,635.03,601.964Z" transform="translate(-54.066 -31.793)" style="fill:#ffe500"/><g style="clip-path:url(#clip-path)"><g id="path41110"><polyline points="580.964 261.62 580.963 570.17 580.963 1329.803 944.179 1563.183 1307.368 1329.802 1307.908 262.78" style="fill:none;stroke:#b54005;stroke-miterlimit:3.86299991607666;stroke-width:10px"/></g></g><path id="path7506" d="M1143.413,1146.984V1118.75s-7.5-11.607-26.1-11.607c-18.544,0-29.638,5.588-29.638,10.257,0,7.639,16.6,29.584,55.74,29.584M996.95,897.057l28.072-49.019,22,49.019h36.44c-21.918,20.569-30.88,51.691-30.88,72.449v22.62c0,9.609-4.832,25.508-4.832,25.508s31.636,24.1,36.494,28.289c2.025,1.593,4.238,2.564,2.78,6.748-2.51,7.045-24,16.736-26.183,18.571-4.859,4.319-6.127,6.91-4.859,11.175,1.539,4.1,5.561,4.859,13.793,1.944,8.314-2.672,25.535-11.715,39.976-17.9,14.387-6.262,33.66-4.67,33.66-4.67v-27.668H1089V946.211l-9.61-15.494,24-42.757,24.132,43.027-9.5,15.224v45.915h27.722V946.211l-9.555-15.224,24.078-42.7,23.97,42.7-9.475,15.224v45.915h27.911V946.211l-9.879-15.224,24.159-42.7,24.077,42.7-9.61,15.224.459,87.781h-54.849v40.6c12.444,11.688,24.186,38.141,24.186,53.716,0,15.953-10.392,22.7-10.392,22.7,3.482,12.525,2.807,17.734,1.323,29.071-1.323,11.526-15.71,29.5-15.71,29.5V1419.4c0,14.252-33.012,12.849-33.012.675V1214.3c-18.679-20.434-69.533-36.494-69.533-36.494-18.652,18.652-30.124,51.044-30.124,51.044,8.1,5.668,20.7,0,25.454-5.507,4.67-5.507,14.252-6.937,19.786-3.455,5.426,3.455,6.775,4.778,4.913,12.876-2.132,8.53-5.533,22.161-5.533,31.69,0,9.771,10.986,7.585,19.192,8.314,16.574,1.458,19.3,19.975,17.923,30.313-1.35,10.392-6.208,32.445-6.208,46.158,0,13.577.729,27.29,2.078,35.064,1.431,7.5,4.13,15.791,3.374,25.481-.837,13.038-8.854,15.116-17.168,6.748-8.206-8.233-123.114-130.726-123.114-130.726-7.639,24.914,24.159,67.4,34.416,80.52,10.338,13.118,9.663,22.755.621,31.744-8.854,8.881-26.1,13.631-29.476,22-3.509,8.1,8.233,33.039,32.391,63.973,24.078,30.88-27.641,51.61-58.494,57.792-31.069,6.1-31.069-15.224-28.909-26.912a101.417,101.417,0,0,0,1.3-28.8c-.675-10.365-10.176-24.725-23.376-41.92-13.038-17.275-13.038-32.985-7.612-73.016,5.48-39.922,4.184-65.4,4.184-65.4s-13.766.567-33.741,0c-19.867-.756-36.359-12.282-37.763-60.491-1.377-48.074-2.51-162.875-5.776-174.914-3.185-11.9-16.061-14.09-21.486-15.683-5.642-1.4-5.912-9.528-.459-12.444,14.36-6.991,31.582-24.618,25.211-35.577-6.451-10.986-31.744-8.719-48.668-.432-16.978,8.206-34.875,26.237-39.491,31.15-4.454,4.859-8.314,4.859-7.828-.378.567-5.615-3.131-31.879-5.318-40.975-2.429-9.178-10.635-26.534-13.415-31.123-2.726-4.616,0-6.4,4.643-4.616a204.64,204.64,0,0,0,24.239,8.611c9.663,2.915,18.868-1.835,23.268-10.851,4.589-9.313,13.55-28.936,18.139-37.709,4.508-8.665,11.8-6.721,17.788-5.4,5.938,1.4,11.445,5.075,16.925,7.261,5.453,2.267,10.014,1.835,11.958-.945,1.863-2.645,4.13-3.644,7.423-10.5,3.212-6.856,7.207-3.59,7.72-.864,16.412,98.686,59.168,103.221,59.168,103.221-6.424,16.439-21.486,42.649-25.049,49.262-3.86,6.181-5.291,14.981-6.235,21.81-.729,6.8,2.375,71.99,6.937,95.879,4.643,23.916,19.246,14.6,24,7.288,4.4-7.288,18.733-37.628,18.733-37.628s3.536-8.26,3.536-15.116c0-6.91-11.877-21.891-14.6-26.561-2.834-4.751-12.849-13.847-12.849-36.818,0-22.89,20.623-38.762,28.046-44.781,7.342-6.019,7.342-14.36,6.343-19.381-3.212-17.707-22.026-54.957-31.069-69.237-9.258-14.225-27.128-41.245-27.128-41.245h37.142l23.916-49.667,26.021,49.883,27.182.243Zm-6.019,150.458a163.863,163.863,0,0,0,17.195-40.84H973.088s5.615,21.3,17.842,40.84m-36.494-100.98c1.4,10.257,9.043,14.171,14.846,11.175,5.777-3.185,4.778-11.5.486-18.139-4.1-6.505-12.633-13.766-15.251-12.687-2.672,1.107-1,13.6-.081,19.651m69.453-19.651c-2.51-1.08-11.5,6.181-15.764,12.687-4.1,6.64-5.156,14.954.675,18.139,5.7,3,13.038-1,14.873-11.175,1-6.047,2.969-18.544.216-19.651" transform="translate(-54.066 -31.793)" style="fill:url(#linear-gradient)"/><path id="path7932" d="M663.525,791.338v45.727h670.118V791.338h-49.418v7.382H712.943v-7.382Z" transform="translate(-54.066 -31.793)" style="fill:#da020e"/><path id="path8358" d="M663.561,585.849h669.99v182.2H663.561Z" transform="translate(-54.066 -31.793)" style="fill:#da020e"/><path id="path8790" d="M778.686,715.153,830,727.758l27.695-77.173V631.043Zm422.9,45.492V736.876h-48.425V716.9h39.572V628.8h-36.467l-12.471-24.24-12.174,24.24h-36.575v88.1h39.734v19.975h-95.258V716.9h39.625V628.8h-36.521l-12.336-24.24-12.471,24.24H981.4v88.1h39.814v19.975H923.988V716.9h39.706V628.8H927.119l-12.228-24.24L902.339,628.8H865.9v88.1h39.841v19.975l-76.93.243L752.286,719.25l15.332,41.394h433.964Z" transform="translate(-54.066 -31.793)" style="fill:#ffe500"/><path id="path8794" d="M709.4,162.358c64.675-21.648,113.559-38.519,193.215-45.591C865.9,91.286,833.319,69.718,795.853,69.718c-19.7,0-36.548,7.531-40.435,21.3-3.617,12.525,6.262,17.977,9.771,17.14,3.671-.945,6.289-2.025,5.4-5.426-.945-3.59,1.835-12.714,14.36-12.714,12.741,0,17.545,11.8,17.545,19.894s-12.849,21.621-36.467,21.621c-23.16,0-35.037-15.44-34.146-29.719-11.175,16.358-17.68,32.9-22.485,60.545" transform="translate(-54.066 -31.793)" style="fill:url(#radial-gradient-3)"/><path id="path10086" d="M258.722,549.589l52.528-71.342c3.023-13.118,5.426-49.019-11.364-74.5-18.355-28.154-42.541-17.033-49.64-13.766-4.481,2-12.633,7.828-17.653,15.953,0,0-50.5,55.605-106.082,110.32-7.855,7.8-16.493,22.053-17.221,35.253a43.4,43.4,0,0,0,10.851,30.826c15.2,16.2,41.758,15.548,55.335,5.021l.945,44.592c13.982-11.256,64.4-59.627,82.3-82.355" transform="translate(-54.066 -31.793)"/><path id="path10094" d="M998.246,445.767c299.081,0,469.244,280.726,506.386,330.015,65.971,88.051,146.733,159.528,240.317,135.909,137.475-35.172,130.321-238.806,130.321-238.806-33.174-23.889-89.7-53.959-192.756-200.044-100.926-143.2-329.313-355.334-684.269-355.334-355.037,0-583.369,212.137-684.053,355.334C211.026,618.926,154.314,649,121.464,672.885c0,0-7.423,203.634,130.16,238.806,93.53,23.619,174.239-47.858,240.317-135.909,37.007-49.289,207.278-330.015,506.3-330.015Z" transform="translate(-54.066 -31.793)" style="fill:#ffe500;stroke:#000;stroke-miterlimit:3.86299991607666;stroke-width:2.0979716777801514px"/><path id="path10098" d="M998.246,419.114c288.338,0,459.823,244.582,521.839,332.835,82.072,109.551,151.551,150.9,218.3,133.925,96.473-24.563,108.457-157.341,109.753-197.534v-1.593l-1.08-.837c-34.011-23.565-90.912-62.623-186.251-197.777-56.874-80.709-272.79-344.24-662.566-344.24-389.642,0-605.747,263.531-662.594,344.24C241.1,622.424,181.631,663.372,149.779,685.236l-1.35,1.107.162,1.4c1.3,40.273,13.308,173.753,109.537,198.127,66.834,16.978,136.449-24.374,218.3-133.925C538.4,663.7,710.043,419.114,998.245,419.114" transform="translate(-54.066 -31.793)" style="fill:#da020e"/><path id="path14986" d="M841.606,214.8C788.7,226,753.852,265,765.27,317.883c6.64,28.558,32.121,81.113,112.722,63.973,22.377-4.265,34.47-13.173,46.185-24.374l-14.684-16.871c-5.533,6.154-13.793,15.116-32.338,18.976-39,8.233-62.191-23.322-67.968-50.558-8.584-40.354,14.927-68.157,41.488-73.907,18.976-4.184,30.475.972,37.763,3.806h.243l4.94-20.676c-12.795-5.129-28.154-8.53-52.015-3.455m442.467,232.635c30.259,18.22,63.271,15.116,78.711-10.446,11.229-17.869,11.337-32.715-2.159-59.3-3.482-7.531-8.044-12.93-11.094-19.786-5.965-11.121-11.472-20.218-6.343-28.828,5.669-9.34,18.787-10.1,30.664-2.834,12.444,7.531,17.6,19.975,20.217,28.477l19.516-8.422c-5.993-16.034-14.873-30.421-35.172-42.433-34.686-20.893-62.893-15.386-74.635,4.184-11.9,19.678-8.53,36.062.432,52.852,0,0,5.561,9.528,8.772,16.034,7.855,13.118,17.006,29.665,10.581,40-7.774,13.038-21.162,15.872-34.2,7.774-16.709-10.527-20.622-22.782-24.1-34.74l-21.459,9.178c4.724,16.466,15.818,33.525,40.273,48.29m-231-241.146-1.215,66.078-63.541-.918.945-66.322-42.595-.783-2.834,162.146,42.676.918,1.35-74.338,63.649,1.161-1.215,74.2,42.622.648,2.78-162.146-42.622-.648Zm610.227,514.88c.3.4,25,12.606,52.447-12.039,22.944-20.623,15.251-48.884-8.719-75.418l-44.187-49.1L1542.366,693.176l28.477,31.582,47.966-43.027,13.847,15.629-30.367,68.508,36.36,29.044,24.645-73.745Zm21.513-79.872c11.283,12.525,11.472,27.4-1.646,38.951-12.767,11.769-29.071,9.07-41.461-4.535l-7.207-8.071,40.786-36.845,9.529,10.5ZM1496.8,599.872l40.354-33.5,32.365,38.519,16.736-13.955L1553.7,552.256l34.146-28.747,33.336,39.706,16.547-13.793-60.9-72.584L1452.7,581.085l67.05,80.034,16.736-13.9-39.68-47.346Zm-46.536-243.651L1435.8,372.093l34.011,30.745-94.259,104.57,31.8,28.585,94.124-104.6,33.579,30.232,14.414-15.872ZM1172.7,366.5l17.168-49.451,47.75,16.466,7.1-20.569-47.831-16.439,14.549-42.352,49.208,16.871,6.91-20.461-89.643-30.853-52.69,153.562,98.794,33.822,7.018-20.461L1172.7,366.5ZM659.321,287.057l60.9,97.066L584.632,333.512l-30.178,18.949,85.972,137.745,32.742-20.623-61.3-98.065,136.989,50.855,29.584-18.544L692.306,266.165l-32.985,20.893ZM469.67,433.734,441.948,463.48l77.712,154.534,18.976-20.3-21.108-41.11,37.52-40.354,42.541,18.031,31.258-33.471L469.67,433.734Zm65.539,73.583-28.154,30.232-28.936-55.605ZM378.083,531.8,347.9,567.723l56.388,116.609-120.928-39.6L257.344,675.56,381.592,779.887l18.868-22.4-87.808-73.906,117.689,38.33,12.39-14.684L386.613,594.77,474.8,668.7l27.533-32.58L378.083,531.8Z" transform="translate(-54.066 -31.793)" style="fill:#ffe500"/><path id="path15846" d="M188.271,614.421l-.135-35.766c61.031-56.037,89.805-112.344,89.805-112.344s-22.431-8.449-32.472-21.216c-4.967-7.1-6.883-16.789-6.047-23.295a27.072,27.072,0,0,1,14.684-19.786c7.018-3.023,20.056-9.879,34.578,10.1,15.467,21.621,11.391,62.65,9.258,72.1,0,0-28.451,49.532-109.672,130.213" transform="translate(-54.066 -31.793)" style="fill:url(#radial-gradient-4)"/><path id="path16274" d="M255.807,472.835c-8.233,14.36-28.99,49.019-81.491,98.227-8.719,8.179-30.475,15.116-42.811,1.269a30.537,30.537,0,0,1-7.207-21.648c.594-10.122,6.667-21.891,12.768-27.074,10.581-8.935,55.686-54.472,87.754-90.291.891,6.532,6.505,17.464,6.505,17.464,4.427,6.1,9.825,14.873,24.483,22.053" transform="translate(-54.066 -31.793)" style="fill:url(#linear-gradient-2)"/><path id="path39821" d="M996.626,1589.732c-192.4,0-411.344-113.532-572.6-297.191-16.412-18.652-37.3-42.649-87.025-42.649-29.044,0-61.976,15.548-83.813,39.6-16.439,17.869-34.875,49.37-30.448,97.66,6.4,65.97,110.941,236.7,297.272,342.728,150.188,85.432,310.553,128.594,476.613,128.594" transform="translate(-54.066 -31.793)" style="fill:url(#linear-gradient-3)"/><path id="path39847" d="M996.626,1589.732c192.4,0,411.344-113.532,572.6-297.191,16.412-18.652,37.3-42.649,87.025-42.649,29.044,0,61.976,15.548,83.813,39.6,16.439,17.869,34.875,49.37,30.448,97.66-6.4,65.97-110.94,236.7-297.272,342.728-150.188,85.432-310.553,128.594-476.613,128.594" transform="translate(-54.066 -31.793)" style="fill:url(#linear-gradient-4)"/><path id="path39878" d="M1520.085,751.949c82.072,109.551,151.551,150.9,218.3,133.925,96.473-24.563,108.457-157.341,109.753-197.534v-1.593l-1.08-.837c-34.011-23.565-90.912-62.623-186.251-197.777" transform="translate(-54.066 -31.793)" style="fill:url(#linear-gradient-5)"/><path id="path39888" d="M476.674,751.949C394.6,861.5,325.122,902.853,258.369,885.874,161.9,861.311,149.912,728.533,148.616,688.341v-1.593l1.08-.837c34.011-23.565,90.912-62.623,186.251-197.777" transform="translate(-54.066 -31.793)" style="fill:url(#linear-gradient-6)"/><path id="path41035" d="M1287.363,162.358c-64.675-21.648-113.559-38.519-193.215-45.591,36.71-25.481,69.291-47.049,106.757-47.049,19.7,0,36.548,7.531,40.435,21.3,3.617,12.525-6.262,17.977-9.771,17.14-3.671-.945-6.289-2.025-5.4-5.426.945-3.59-1.835-12.714-14.36-12.714-12.741,0-17.545,11.8-17.545,19.894s12.849,21.621,36.467,21.621c23.16,0,35.037-15.44,34.146-29.719,11.175,16.358,17.68,32.9,22.485,60.545" transform="translate(-54.066 -31.793)" style="fill:url(#radial-gradient-5)"/><path id="path9646-8" d="M1001.279,77.463c-2.025,12.363-16.25,24.213-30.637,24.213h0c-14.414,0-18.733-2.321-18.733-2.321h0c-2.187,3.4-4.1,6.019-6.37,9.69h0c13.065-.513,43.377-1.35,55.524-1.35h0c12.12,0,45.726,1.755,52.96,2.267h0c-11.688-27.4-34.227-65.323-49.8-65.323h0c-.54,0-1.215-.052-2.052-.052h0c-3.644,0-16.267,10.945-23.029,20.555C970.256,77.767,1001.279,77.463,1001.279,77.463Z" transform="translate(-54.066 -31.793)" style="fill:url(#radial-gradient-6)"/><path id="path41092" d="M1808.487,614.421l.135-35.766c-61.031-56.037-89.805-112.344-89.805-112.344s22.431-8.449,32.472-21.216c4.967-7.1,6.883-16.789,6.046-23.295a27.072,27.072,0,0,0-14.684-19.786c-7.018-3.023-20.056-9.879-34.578,10.1-15.467,21.621-11.391,62.65-9.259,72.1,0,0,28.451,49.532,109.672,130.213" transform="translate(-54.066 -31.793)" style="fill:url(#radial-gradient-7)"/><path id="path41094" d="M1740.951,472.835c8.233,14.36,28.99,49.019,81.492,98.227,8.719,8.179,30.475,15.116,42.811,1.269a30.536,30.536,0,0,0,7.207-21.648c-.594-10.122-6.667-21.891-12.767-27.074-10.581-8.935-55.686-54.472-87.754-90.291-.891,6.532-6.505,17.464-6.505,17.464-4.427,6.1-9.825,14.873-24.482,22.053" transform="translate(-54.066 -31.793)" style="fill:url(#linear-gradient-7)"/><path id="path41140" d="M635.03,601.964V1361.6l363.216,233.38,363.189-233.38.54-758.472c-11.634-10.257-35.792-32.742-54.715-44.511h-619.7C671.875,569.626,640.455,596.133,635.03,601.964Z" transform="translate(-54.066 -31.793)" style="fill:none;stroke:#000;stroke-miterlimit:3.86299991607666;stroke-width:2.0979716777801514px"/><path id="path41152" d="M1264.539,1858.742c-35.657,9.447-61.139,17.437-121.2,24.725,0,0,1.917,6.074,14.981,5.587,4.994-.324,5.668-1.566,7.4-1.862,3.86-.7,9.448,3.212,8.881,9.717-.594,4.589-4.427,10.284-17.761,10.284s-28.855-10.851-36.71-21a103.516,103.516,0,0,1-16.25,2.267s25.67,35.846,76.093,35.846c55.363,0,75.985-49.694,84.569-65.566" transform="translate(-54.066 -31.793)" style="fill:url(#radial-gradient-8)"/><path id="path6214" d="M55.115,1079c0-91.641,74.365-166.168,166.114-166.168,91.776,0,166.087,74.527,166.087,166.168a166.1,166.1,0,1,1-332.2,0Z" transform="translate(-54.066 -31.793)" style="fill:#ffe500;stroke:#000;stroke-miterlimit:3.86299991607666;stroke-width:2.0979716777801514px"/><path id="path39854" d="M93.142,1072.824c0-69.48,57.34-125.985,128.084-125.985,70.765,0,128.063,56.5,128.063,125.985,0,69.6-57.3,125.985-128.063,125.985C150.483,1198.809,93.142,1142.427,93.142,1072.824Z" transform="translate(-54.066 -31.793)" style="fill:url(#radial-gradient-9)"/><path id="path17130" d="M256.509,1193.207c-7.288,2.321-10.446-2.78-13.766-6.451-12.93-14.873-16.25-54.472-16.25-59.708,0-5.264,1.943-11.04,5.642-11.175,31.177-.594,53.446-9.636,73.879-26.615a118.983,118.983,0,0,0,31.069-39.221c1.782-3.779,6.019-3.1,6.8,2.132a105.4,105.4,0,0,1,2.51,20.731c0,57.063-38.465,103.679-89.886,120.307m-32.9,5.156c-.891,0-1.89.108-2.726.108-22.971,0-48.263-8.773-63.244-17.3-15.521-8.449-21.351-48.29-21.351-68.427,0-65.566,26.885-104.6,31.258-112.263,4.265-7.774,13.874-8.584,20.92-6.694,7.288,2.105,9.879,3.374,18.274,5.857,4.373,1.431,13.253,3.239,19.921,4.427,6.667,1.593,13.847,3,9.528,15.44-4.265,12.471-18.787,42.433-20.245,77.955-1.4,32.148,2.861,64.081,10.122,83.7,4.778,12.687,4.778,17.437-2.456,17.195M128.7,1048.687c-6.127-3.239-13.5-19.057-15.98-23.673-1.673-3.32-1.673-12.822.729-16.871,10.257-17.95,24.806-34.578,43.539-43.242,2.294-1,5.507-1.188,5.507,4.319,0,2.942,1.593,7.531,1.646,10.446,0,2.942,1.242,8.962-2.483,13.712-3.914,4.778-20.676,34.5-24.968,51.151-.7,3.725-1.835,7.639-7.99,4.157m-3.455,105.218c-17.383-17.168-29.773-48.263-29.773-81.006a129.537,129.537,0,0,1,5.264-36.44s3.1-5.183,5.8-.783c2.078,3.239,4.94,6.505,7.261,10.824,2.591,4.319,16.034,14.549,14.9,22.89-4.7,30.637-.486,71.342.972,78.2,1.3,6.775-.567,9.663-4.427,6.316M180.12,954.213a129.636,129.636,0,0,1,40.759-6.667c21.513,0,42.406,3.914,59.843,15.035,4.481,2.915,5.75,6.316,5.75,11.364,0,16.439-25.7,21.945-42.7,21.945-17.113,0-38.168-6.775-53.068-11.5-14.846-4.643-18.085-13.226-18.085-17.14,0-3.752,2.888-11.526,7.5-13.038m116.015,18.274c2.294,1.863,8.368,6.775,8.368,6.775,11.985,10.932,22.809,23.4,29.1,38.357,7.855,18.841-16.52,47.372-23.673,53.959-32.283,30.313-52.5,29.746-63.946,31.393-11.445,1.673-18.868-5.507-18.571-14.117.729-25.211,18.679-68.67,23.835-76.849a28.949,28.949,0,0,1,9.016-8.53c11.985-3.32,23.619-8.314,29.638-15.17a28.935,28.935,0,0,0,6.235-15.818m-74.014-33.12A139.647,139.647,0,1,0,361.863,1079c0-77.119-62.623-139.634-139.742-139.634" transform="translate(-54.066 -31.793)" style="fill:#da020e"/><path id="path6190" d="M1612.657,1078.679c0-91.641,74.365-165.9,166.114-165.9,91.8,0,166.114,74.257,166.114,165.9a166.106,166.106,0,0,1-166.114,166.2C1687.022,1244.874,1612.657,1170.482,1612.657,1078.679Z" transform="translate(-54.066 -31.793)" style="fill:#ffe500;stroke:#000;stroke-miterlimit:3.86299991607666;stroke-width:2.0979716777801514px"/><path id="path17562" d="M1876.053,1153.33c-3.644,3.59-5.7.459-4.157-6.262,1.269-6.667,5.506-47.507.783-78.144-1.161-8.314,12.363-18.517,14.846-22.89,2.483-4.292,5.317-7.639,7.315-10.77,2.78-4.535,5.722.54,5.722.54a124.87,124.87,0,0,1,5.291,36.575c0,32.85-12.552,63.838-29.8,80.952M1864.8,1044.09c-4.319-16.6-21.189-46.455-25-51.205-3.833-4.589-2.618-10.689-2.564-13.632,0-2.915,1.674-7.585,1.674-10.608,0-5.264,3.185-5.156,5.452-4.157,18.841,8.665,33.309,25.049,43.675,43.162,2.294,4.13,2.349,13.577.648,16.79-2.429,4.643-9.744,20.461-16.007,23.808-6.262,3.428-7.18-.567-7.882-4.157M1843.823,1180.7c-15.008,8.395-40.3,17.248-63.379,17.248h-2.672c-7.1.189-7.261-4.751-2.4-17.383,7.045-19.462,11.445-51.529,9.987-83.6-1.458-35.684-15.791-65.323-20.245-77.874-4.319-12.444,2.888-13.955,9.636-15.359,6.694-1.323,15.548-3.266,19.948-4.67,8.26-2.51,10.932-3.779,18.22-5.857,7.1-1.835,16.655-.918,21,6.667,4.265,7.774,31.2,47.048,31.2,112.452,0,20.029-5.885,59.816-21.3,68.373m-98.875,11.985c-51.556-16.709-89.94-63.3-89.94-120.307,0-8.395,1.646-16.169,2.321-20.7,1-5.237,4.94-6.1,6.91-2.24a119.967,119.967,0,0,0,31.069,39.356c20.568,16.844,42.622,26.048,73.987,26.7,3.806.189,5.587,5.777,5.587,11.148,0,5.318-3.212,44.835-16.088,59.6-3.428,3.779-6.721,8.962-13.847,6.451m-77.038-175.507c6.127-14.954,17.006-27.641,28.99-38.33,0,0,5.939-5.021,8.233-6.775,0,0,.486,8.935,6.451,15.629,5.939,6.748,17.464,12.039,29.449,15.2a31.676,31.676,0,0,1,9.016,8.692c5.317,7.936,23.133,51.34,23.916,76.741.216,8.638-7.126,15.818-18.6,14.171-11.5-1.539-31.662-1.188-63.919-31.339-7.126-6.613-31.5-35.091-23.538-53.986m52.69-55.065c17.68-11.175,38.3-15.089,59.843-15.089a129.822,129.822,0,0,1,40.786,6.694c4.778,1.485,7.585,9.178,7.585,13.038,0,3.806-3.158,12.5-18.112,17.168-14.9,4.589-35.873,11.445-52.96,11.445-17.195,0-42.811-5.588-42.811-21.945,0-4.94,1.242-8.53,5.669-11.31m58.521-23.106c-77.092,0-139.607,62.542-139.607,139.472a139.674,139.674,0,0,0,279.349,0c0-76.93-62.516-139.472-139.742-139.472" transform="translate(-54.066 -31.793)" style="fill:#da020e"/><path id="path39874" d="M1652.582,1072.209c0-69.48,57.34-125.985,128.084-125.985,70.765,0,128.063,56.5,128.063,125.985,0,69.6-57.3,125.985-128.063,125.985C1709.922,1198.194,1652.582,1141.812,1652.582,1072.209Z" transform="translate(-54.066 -31.793)" style="fill:url(#radial-gradient-10)"/></g></svg>